<svg width="184" height="39" viewBox="0 0 184 39" fill="none" xmlns="http://www.w3.org/2000/svg">
<path d="M3.61075 28.792C4.69875 29.2187 5.72275 29.3253 6.68275 29.112C7.64275 28.8773 8.52808 28.12 9.33875 26.84L10.4268 25.112L10.6508 24.824L19.2268 8.6H21.5948L11.4188 27.352C10.7361 28.6533 9.92542 29.624 8.98675 30.264C8.06942 30.904 7.08808 31.2453 6.04275 31.288C5.01875 31.3307 3.98408 31.1387 2.93875 30.712L3.61075 28.792ZM10.5868 26.968L0.89075 8.6H3.41875L11.8668 25.016L10.5868 26.968ZM21.0038 30.968L21.1638 29.016C21.3131 29.0373 21.4518 29.0693 21.5798 29.112C21.7291 29.1333 21.8571 29.144 21.9638 29.144C22.6464 29.144 23.1904 28.888 23.5958 28.376C24.0224 27.864 24.3424 27.1813 24.5558 26.328C24.7691 25.4747 24.9184 24.5147 25.0038 23.448C25.0891 22.36 25.1638 21.272 25.2278 20.184L25.5158 14.2H37.8358V31H35.5638V15.512L36.1398 16.184H26.9878L27.5318 15.48L27.2758 20.344C27.2118 21.7947 27.0944 23.1813 26.9238 24.504C26.7744 25.8267 26.5291 26.9893 26.1878 27.992C25.8678 28.9947 25.4198 29.784 24.8438 30.36C24.2678 30.9147 23.5318 31.192 22.6358 31.192C22.3798 31.192 22.1131 31.1707 21.8358 31.128C21.5798 31.0853 21.3024 31.032 21.0038 30.968ZM60.6785 31V14.2H62.9505V31H60.6785ZM51.3665 20.12C53.4785 20.1413 55.0892 20.6107 56.1985 21.528C57.3078 22.4453 57.8625 23.768 57.8625 25.496C57.8625 27.288 57.2652 28.664 56.0705 29.624C54.8758 30.584 53.1692 31.0533 50.9505 31.032L44.2945 31V14.2H46.5665V20.056L51.3665 20.12ZM50.7905 29.304C52.3692 29.3253 53.5532 29.016 54.3425 28.376C55.1532 27.7147 55.5585 26.7547 55.5585 25.496C55.5585 24.2373 55.1638 23.32 54.3745 22.744C53.5852 22.1467 52.3905 21.8373 50.7905 21.816L46.5665 21.752V29.24L50.7905 29.304ZM76.9715 31.192C75.6062 31.192 74.3902 30.968 73.3235 30.52C72.2782 30.072 71.3822 29.3893 70.6355 28.472C69.8888 27.5547 69.3235 26.424 68.9395 25.08C68.5555 23.7147 68.3635 22.136 68.3635 20.344C68.3635 18.744 68.5128 17.3467 68.8115 16.152C69.1102 14.936 69.5262 13.8907 70.0595 13.016C70.5928 12.1413 71.2115 11.4053 71.9155 10.808C72.6408 10.1893 73.4195 9.69867 74.2515 9.336C75.1048 8.952 75.9795 8.664 76.8755 8.472L84.4275 6.712L84.8115 8.824L77.7075 10.424C77.2595 10.5307 76.7155 10.68 76.0755 10.872C75.4568 11.064 74.8168 11.352 74.1555 11.736C73.5155 12.12 72.9182 12.6533 72.3635 13.336C71.8088 14.0187 71.3608 14.904 71.0195 15.992C70.6995 17.0587 70.5395 18.392 70.5395 19.992C70.5395 20.3333 70.5502 20.6107 70.5715 20.824C70.5928 21.016 70.6142 21.2293 70.6355 21.464C70.6782 21.6773 70.7102 21.9973 70.7315 22.424L69.7395 21.592C69.9742 20.2907 70.4542 19.16 71.1795 18.2C71.9048 17.2187 72.8115 16.4613 73.8995 15.928C75.0088 15.3733 76.2355 15.096 77.5795 15.096C79.1368 15.096 80.5235 15.4373 81.7395 16.12C82.9555 16.7813 83.9048 17.7093 84.5875 18.904C85.2915 20.0987 85.6435 21.4853 85.6435 23.064C85.6435 24.6213 85.2808 26.0187 84.5555 27.256C83.8515 28.4933 82.8488 29.464 81.5475 30.168C80.2462 30.8507 78.7208 31.192 76.9715 31.192ZM77.2275 29.304C78.4222 29.304 79.4782 29.0373 80.3955 28.504C81.3128 27.9493 82.0275 27.2027 82.5395 26.264C83.0728 25.3253 83.3395 24.2693 83.3395 23.096C83.3395 21.944 83.0728 20.92 82.5395 20.024C82.0275 19.128 81.3128 18.424 80.3955 17.912C79.4782 17.3787 78.4115 17.112 77.1955 17.112C76.0008 17.112 74.9448 17.368 74.0275 17.88C73.1102 18.3707 72.3848 19.064 71.8515 19.96C71.3395 20.856 71.0835 21.8907 71.0835 23.064C71.0835 24.2373 71.3395 25.2933 71.8515 26.232C72.3848 27.1707 73.1102 27.9173 74.0275 28.472C74.9662 29.0267 76.0328 29.304 77.2275 29.304ZM143.012 23.896C142.031 24.3227 141.039 24.664 140.036 24.92C139.055 25.1547 138.074 25.272 137.092 25.272C135.108 25.272 133.54 24.824 132.388 23.928C131.236 23.0107 130.66 21.6027 130.66 19.704V14.2H132.9V19.576C132.9 20.856 133.316 21.816 134.148 22.456C134.98 23.096 136.1 23.416 137.508 23.416C138.362 23.416 139.258 23.3093 140.196 23.096C141.135 22.8613 142.084 22.5307 143.044 22.104L143.012 23.896ZM142.82 31V14.2H145.092V31H142.82ZM163.865 31L156.953 22.68L158.841 21.56L166.553 31H163.865ZM151.545 31V14.2H153.817V31H151.545ZM153.113 23.512V21.56H158.521V23.512H153.113ZM159.033 22.84L156.921 22.52L163.609 14.2H166.073L159.033 22.84ZM169.458 37.368C168.668 37.368 167.911 37.24 167.186 36.984C166.482 36.728 165.873 36.344 165.361 35.832L166.418 34.136C166.844 34.5413 167.303 34.8507 167.794 35.064C168.306 35.2987 168.871 35.416 169.49 35.416C170.236 35.416 170.876 35.2027 171.41 34.776C171.964 34.3707 172.487 33.6453 172.978 32.6L174.066 30.136L174.322 29.784L181.234 14.2H183.474L175.058 33.016C174.588 34.104 174.066 34.968 173.49 35.608C172.935 36.248 172.327 36.696 171.666 36.952C171.004 37.2293 170.268 37.368 169.458 37.368ZM173.938 31.48L166.194 14.2H168.562L175.41 29.624L173.938 31.48Z" fill="black"/>
<path d="M112.63 25.4025C111.46 26.3457 110.003 26.86 108.5 26.86C106.997 26.86 105.54 26.3457 104.37 25.4025C104.013 25.1055 103.552 24.9625 103.089 25.0052C102.626 25.0479 102.2 25.2726 101.903 25.63C101.605 25.9874 101.463 26.4481 101.505 26.9109C101.548 27.3736 101.773 27.8005 102.13 28.0975C103.917 29.5896 106.172 30.4069 108.5 30.4069C110.828 30.4069 113.083 29.5896 114.87 28.0975C115.227 27.8005 115.452 27.3736 115.495 26.9109C115.537 26.4481 115.395 25.9874 115.098 25.63C114.95 25.453 114.77 25.3068 114.566 25.1996C114.363 25.0924 114.14 25.0263 113.911 25.0052C113.448 24.9625 112.987 25.1055 112.63 25.4025ZM103.25 19.75C103.596 19.75 103.934 19.6474 104.222 19.4551C104.51 19.2628 104.734 18.9895 104.867 18.6697C104.999 18.3499 105.034 17.9981 104.966 17.6586C104.899 17.3191 104.732 17.0073 104.487 16.7626C104.243 16.5178 103.931 16.3511 103.591 16.2836C103.252 16.2161 102.9 16.2508 102.58 16.3832C102.261 16.5157 101.987 16.74 101.795 17.0277C101.603 17.3155 101.5 17.6539 101.5 18C101.5 18.4641 101.684 18.9092 102.013 19.2374C102.341 19.5656 102.786 19.75 103.25 19.75ZM113.75 16.25C113.404 16.25 113.066 16.3526 112.778 16.5449C112.49 16.7372 112.266 17.0105 112.133 17.3303C112.001 17.6501 111.966 18.0019 112.034 18.3414C112.101 18.6809 112.268 18.9927 112.513 19.2374C112.757 19.4822 113.069 19.6488 113.409 19.7164C113.748 19.7839 114.1 19.7492 114.42 19.6168C114.739 19.4843 115.013 19.26 115.205 18.9722C115.397 18.6845 115.5 18.3461 115.5 18C115.5 17.5359 115.316 17.0907 114.987 16.7626C114.659 16.4344 114.214 16.25 113.75 16.25ZM108.5 4C105.039 4 101.655 5.02636 98.7775 6.94928C95.8997 8.87221 93.6566 11.6053 92.3321 14.803C91.0076 18.0007 90.661 21.5194 91.3363 24.9141C92.0115 28.3087 93.6782 31.4269 96.1256 33.8744C98.5731 36.3218 101.691 37.9885 105.086 38.6637C108.481 39.339 111.999 38.9924 115.197 37.6679C118.395 36.3434 121.128 34.1003 123.051 31.2225C124.974 28.3446 126 24.9612 126 21.5C126 19.2019 125.547 16.9262 124.668 14.803C123.788 12.6798 122.499 10.7507 120.874 9.12563C119.249 7.50061 117.32 6.21157 115.197 5.33211C113.074 4.45265 110.798 4 108.5 4ZM108.5 35.5C105.731 35.5 103.024 34.6789 100.722 33.1406C98.4197 31.6022 96.6253 29.4157 95.5657 26.8576C94.5061 24.2994 94.2288 21.4845 94.769 18.7687C95.3092 16.053 96.6426 13.5584 98.6005 11.6005C100.558 9.64257 103.053 8.3092 105.769 7.76901C108.484 7.22881 111.299 7.50606 113.858 8.56569C116.416 9.62531 118.602 11.4197 120.141 13.722C121.679 16.0243 122.5 18.7311 122.5 21.5C122.5 25.213 121.025 28.774 118.399 31.3995C115.774 34.025 112.213 35.5 108.5 35.5Z" fill="black"/>
</svg>
